<svg width="127" height="127" viewBox="0 0 127 127" fill="none" xmlns="http://www.w3.org/2000/svg">
<circle cx="63.5" cy="63.5" r="63.5" transform="matrix(1 0 0 -1 0 127)" fill="url(#paint0_linear_356_16283)"/>
<circle cx="53.975" cy="53.975" r="54.9275" transform="matrix(1 0 0 -1 9.5249 117.475)" fill="url(#paint1_linear_356_16283)" stroke="#E9E9F1" stroke-width="1.905"/>
<mask id="path-3-inside-1_356_16283" fill="white">
<path d="M37.9748 83.6558L73.5729 48.0577L43.8572 48.0368L43.852 40.6079L86.3029 40.6378L86.3328 83.0887L78.9039 83.0835L78.883 53.3679L43.2849 88.9659L37.9748 83.6558Z"/>
</mask>
<path d="M37.9748 83.6558L73.5729 48.0577L43.8572 48.0368L43.852 40.6079L86.3029 40.6378L86.3328 83.0887L78.9039 83.0835L78.883 53.3679L43.2849 88.9659L37.9748 83.6558Z" fill="#E9E9F1"/>
<path d="M37.9748 83.6558L14.9854 106.645L-8.00408 83.6558L14.9854 60.6663L37.9748 83.6558ZM73.5729 48.0577L73.5958 15.5458L152.009 15.601L96.5623 71.0472L73.5729 48.0577ZM43.8572 48.0368L43.8343 80.5488L11.3681 80.5259L11.3452 48.0597L43.8572 48.0368ZM43.852 40.6079L11.34 40.6308L11.3171 8.07299L43.8749 8.09592L43.852 40.6079ZM86.3029 40.6378L86.3258 8.12582L118.792 8.14868L118.815 40.6149L86.3029 40.6378ZM86.3328 83.0887L118.845 83.0658L118.868 115.624L86.3099 115.601L86.3328 83.0887ZM78.9039 83.0835L78.881 115.595L46.4148 115.573L46.3919 83.1064L78.9039 83.0835ZM78.883 53.3679L55.8935 30.3784L111.34 -25.0678L111.395 53.345L78.883 53.3679ZM43.2849 88.9659L66.2744 111.955L43.2849 134.945L20.2955 111.955L43.2849 88.9659ZM14.9854 60.6663L50.5834 25.0683L96.5623 71.0472L60.9643 106.645L14.9854 60.6663ZM73.55 80.5697L43.8343 80.5488L43.8801 15.5248L73.5958 15.5458L73.55 80.5697ZM11.3452 48.0597L11.34 40.6308L76.364 40.585L76.3692 48.0139L11.3452 48.0597ZM43.8749 8.09592L86.3258 8.12582L86.28 73.1498L43.8291 73.1199L43.8749 8.09592ZM118.815 40.6149L118.845 83.0658L53.8208 83.1116L53.7909 40.6607L118.815 40.6149ZM86.3099 115.601L78.881 115.595L78.9268 50.5715L86.3557 50.5767L86.3099 115.601ZM46.3919 83.1064L46.371 53.3907L111.395 53.345L111.416 83.0606L46.3919 83.1064ZM101.872 76.3573L66.2744 111.955L20.2955 65.9764L55.8935 30.3784L101.872 76.3573ZM20.2955 111.955L14.9854 106.645L60.9643 60.6663L66.2744 65.9764L20.2955 111.955Z" fill="#E9E9F1" mask="url(#path-3-inside-1_356_16283)"/>
<defs>
<linearGradient id="paint0_linear_356_16283" x1="87.7019" y1="221.936" x2="-71.9246" y2="180.226" gradientUnits="userSpaceOnUse">
<stop stop-color="#DF1D00"/>
<stop offset="1" stop-color="#FFC148"/>
</linearGradient>
<linearGradient id="paint1_linear_356_16283" x1="74.5466" y1="188.645" x2="-61.1359" y2="153.192" gradientUnits="userSpaceOnUse">
<stop stop-color="#DF1D00"/>
<stop offset="1" stop-color="#FFC148"/>
</linearGradient>
</defs>
</svg>
