<svg width="40" height="40" viewBox="0 0 40 40" fill="none" xmlns="http://www.w3.org/2000/svg">
<rect width="40" height="40" rx="20" fill="url(#paint0_linear_354_10093)"/>
<g clip-path="url(#clip0_354_10093)">
<path d="M26 14H24C24 11.79 22.21 10 20 10C17.79 10 16 11.79 16 14H14C12.9 14 12 14.9 12 16V28C12 29.1 12.9 30 14 30H26C27.1 30 28 29.1 28 28V16C28 14.9 27.1 14 26 14ZM20 12C21.1 12 22 12.9 22 14H18C18 12.9 18.9 12 20 12ZM26 28H14V16H16V18C16 18.55 16.45 19 17 19C17.55 19 18 18.55 18 18V16H22V18C22 18.55 22.45 19 23 19C23.55 19 24 18.55 24 18V16H26V28Z" fill="white"/>
</g>
<defs>
<linearGradient id="paint0_linear_354_10093" x1="27.6226" y1="69.901" x2="-22.6534" y2="56.764" gradientUnits="userSpaceOnUse">
<stop stop-color="#DF1D00"/>
<stop offset="1" stop-color="#FFC148"/>
</linearGradient>
<clipPath id="clip0_354_10093">
<rect width="24" height="24" fill="white" transform="translate(8 8)"/>
</clipPath>
</defs>
</svg>
