<svg width="40" height="40" viewBox="0 0 40 40" fill="none" xmlns="http://www.w3.org/2000/svg">
<path fill-rule="evenodd" clip-rule="evenodd" d="M20 40C31.0457 40 40 31.0457 40 20C40 8.9543 31.0457 0 20 0C8.9543 0 0 8.9543 0 20C0 31.0457 8.9543 40 20 40ZM24 14H26C27.1 14 28 14.9 28 16V28C28 29.1 27.1 30 26 30H14C12.9 30 12 29.1 12 28V16C12 14.9 12.9 14 14 14H16C16 11.79 17.79 10 20 10C22.21 10 24 11.79 24 14ZM20 12C21.1 12 22 12.9 22 14H18C18 12.9 18.9 12 20 12ZM26 16V28H14V16H16V18C16 18.55 16.45 19 17 19C17.55 19 18 18.55 18 18V16H22V18C22 18.55 22.45 19 23 19C23.55 19 24 18.55 24 18V16H26Z" fill="#1B1B2C"/>
<path fill-rule="evenodd" clip-rule="evenodd" d="M26 14H24C24 11.79 22.21 10 20 10C17.79 10 16 11.79 16 14H14C12.9 14 12 14.9 12 16V28C12 29.1 12.9 30 14 30H26C27.1 30 28 29.1 28 28V16C28 14.9 27.1 14 26 14ZM22 14C22 12.9 21.1 12 20 12C18.9 12 18 12.9 18 14H22ZM14 28H26V16H24V18C24 18.55 23.55 19 23 19C22.45 19 22 18.55 22 18V16H18V18C18 18.55 17.55 19 17 19C16.45 19 16 18.55 16 18V16H14V28Z" fill="white"/>
</svg>
