<svg width="18" height="30" viewBox="0 0 18 30" fill="none" xmlns="http://www.w3.org/2000/svg">
<path d="M13.667 0.317247C13.5337 0.48856 13.3434 0.723322 13.2482 0.831186C13.153 0.945395 13.0896 1.0596 13.115 1.09767C13.134 1.13574 13.1276 1.14209 13.0896 1.12305C13.0578 1.10402 12.9436 1.19919 12.8421 1.33878C12.7406 1.47837 12.5566 1.71947 12.436 1.86541C11.9729 2.43011 11.7635 2.69659 11.5478 2.97577C11.4272 3.12805 11.2622 3.33109 11.1861 3.41357C11.1036 3.5024 11.0592 3.59757 11.0846 3.63564C11.1036 3.66737 11.0973 3.68006 11.0592 3.66102C11.0021 3.62295 10.8752 3.76888 10.596 4.16227C10.5453 4.23841 10.1011 4.79676 9.61256 5.39953C9.124 6.0023 8.65447 6.59237 8.56565 6.70658C8.00095 7.4299 7.77253 7.71543 7.70908 7.7535C7.67101 7.78522 7.67101 7.80425 7.70908 7.80425C7.74081 7.80425 7.70274 7.84867 7.6266 7.90577C7.54411 7.96288 7.49335 8.04536 7.51239 8.09612C7.53142 8.14688 7.51873 8.17861 7.49335 8.16592C7.4299 8.15322 7.06824 8.55296 6.67486 9.07324C6.52892 9.26359 6.26244 9.59352 6.09113 9.80291C5.91347 10.0123 5.75484 10.228 5.72947 10.2788C5.70409 10.3295 5.65333 10.3993 5.61526 10.4374C5.57084 10.4691 5.39318 10.6848 5.20918 10.9133C5.03152 11.1417 4.84752 11.3701 4.80311 11.4209C4.30186 12.0236 3.75619 12.785 3.78792 12.8421C3.80695 12.8802 3.80695 12.8929 3.77523 12.8675C3.72447 12.8167 3.71178 12.8231 3.23591 13.3814C3.04556 13.6099 2.93135 13.7685 2.98211 13.7368C3.03287 13.705 2.96942 13.7875 2.84253 13.9208C2.70928 14.054 2.62045 14.1936 2.64583 14.2317C2.66487 14.2634 2.65852 14.2824 2.6268 14.257C2.59507 14.238 2.35397 14.4981 2.09382 14.8344C1.83368 15.1644 1.45933 15.6339 1.26898 15.8687C1.07864 16.1034 0.710631 16.5539 0.463179 16.8711L0 17.4485H3.83868C5.95154 17.4485 7.67736 17.4739 7.67736 17.4993C7.67736 17.5881 7.07459 19.2695 6.43375 20.9953C6.3132 21.3189 6.23071 21.6362 6.24975 21.6869C6.26878 21.744 6.26878 21.7694 6.2434 21.744C6.21802 21.7187 6.08478 21.9852 5.95154 22.3405C5.75484 22.8734 5.72312 23.0067 5.78657 23.1146C5.85002 23.2351 5.84367 23.2414 5.76753 23.178C5.6914 23.1146 5.65333 23.1526 5.5645 23.4191C5.50105 23.5904 5.46932 23.7617 5.4947 23.8061C5.52643 23.8506 5.51374 23.8569 5.45663 23.8252C5.39318 23.7871 5.38049 23.7998 5.41222 23.8759C5.43125 23.933 5.42491 23.9838 5.39318 23.9965C5.3678 24.0092 5.2536 24.2566 5.15208 24.5548C5.04421 24.8531 4.84118 25.4178 4.70159 25.8048C4.562 26.1982 4.46048 26.5218 4.47952 26.5218C4.49221 26.5218 4.46683 26.5852 4.40972 26.6677C4.35896 26.7438 4.3082 26.8707 4.29551 26.9342C4.28917 27.004 4.25744 27.0928 4.23206 27.1372C4.13054 27.3022 3.7435 28.4379 3.77523 28.4887C3.79426 28.5204 3.78157 28.5521 3.75619 28.5648C3.69909 28.5839 3.16612 29.9607 3.19784 29.9988C3.21053 30.0115 3.28667 29.9227 3.36915 29.8084C3.45164 29.6942 3.61026 29.4849 3.72447 29.3516C3.83868 29.2184 3.91482 29.0788 3.89578 29.0471C3.87675 29.0153 3.88944 29.0026 3.92116 29.009C3.97827 29.028 4.13689 28.844 5.08863 27.6385C5.3107 27.3656 5.52643 27.0992 5.57084 27.0547C5.61526 27.004 5.64064 26.9659 5.62795 26.9659C5.60891 26.9659 5.67871 26.8771 5.78022 26.7692C5.88174 26.6614 5.94519 26.5408 5.91981 26.5027C5.90078 26.471 5.90712 26.452 5.93885 26.471C5.97057 26.4964 6.26878 26.1665 6.59872 25.7477C6.92866 25.3289 7.28397 24.8848 7.37914 24.7706C7.48066 24.6564 7.54411 24.5295 7.51873 24.4914C7.49335 24.4533 7.50604 24.4343 7.54411 24.4406C7.59487 24.4533 8.11516 23.8759 8.48951 23.381C8.51489 23.343 8.87655 22.8988 9.28262 22.3849C9.6887 21.8646 10.0186 21.4331 10.0123 21.4205C9.9996 21.4078 10.0694 21.3316 10.1709 21.2555C10.2661 21.1793 10.3422 21.0905 10.3422 21.0588C10.3422 21.0271 10.3993 20.9319 10.4755 20.8558C10.5516 20.7796 10.8117 20.4624 11.0592 20.1515C13.7494 16.7887 14.3332 16.0336 14.3015 15.9765C14.2761 15.9384 14.2824 15.9258 14.3205 15.9448C14.4093 16.0019 14.8662 15.4372 14.809 15.3357C14.7837 15.2976 14.7837 15.2786 14.809 15.304C14.8598 15.342 15.1073 15.0819 15.5133 14.5616C15.7418 14.2634 16.0717 13.8573 16.243 13.6543C16.3128 13.5718 16.3509 13.4703 16.3255 13.4385C16.3064 13.4005 16.3191 13.3878 16.3572 13.4132C16.4333 13.4576 16.7062 13.1086 16.6364 13.0452C16.611 13.0198 16.6237 13.0071 16.6681 13.0198C16.7062 13.0261 16.8267 12.9183 16.9346 12.766L17.1313 12.4995H13.2863H9.44759L9.492 12.3536C9.52373 12.2774 9.54276 12.1505 9.54911 12.0744C9.54911 12.0046 9.57449 11.9538 9.60621 11.9792C9.63794 11.9982 9.64428 11.9665 9.62525 11.9031C9.59987 11.846 9.60621 11.8079 9.63159 11.8269C9.65697 11.8396 9.77118 11.5922 9.87904 11.2749C9.99325 10.9513 10.1963 10.3803 10.3422 10.0059C10.4818 9.62525 10.5833 9.29531 10.5643 9.26359C10.5453 9.23186 10.5516 9.20014 10.5833 9.18745C10.6277 9.16841 10.9386 8.34357 11.5287 6.69389C11.6112 6.44644 11.7254 6.14823 11.7762 6.02768C12.1378 5.11401 13.1213 2.25245 13.0896 2.19534C13.0705 2.15727 13.0769 2.14458 13.1023 2.16996C13.134 2.20169 13.2038 2.08748 13.2672 1.91617C13.7114 0.691597 13.9525 1.90735e-06 13.9334 1.90735e-06C13.9271 1.90735e-06 13.8066 0.139589 13.667 0.317247Z" fill="#000014"/>
</svg>
