<svg width="24" height="24" viewBox="0 0 24 24" fill="none" xmlns="http://www.w3.org/2000/svg">
<path d="M17.038 5.89553C16.8163 5.89416 16.5992 5.95876 16.4143 6.08108C16.2294 6.20341 16.085 6.37795 15.9995 6.58253C15.914 6.7871 15.8913 7.01249 15.9342 7.23001C15.9772 7.44753 16.0838 7.64738 16.2406 7.80416C16.3973 7.96094 16.5972 8.06756 16.8147 8.11048C17.0322 8.1534 17.2576 8.13067 17.4622 8.04519C17.6668 7.95971 17.8413 7.81536 17.9636 7.63044C18.0859 7.44552 18.1505 7.2284 18.1492 7.00669C18.1474 6.71255 18.0297 6.43097 17.8217 6.22298C17.6137 6.01499 17.3322 5.89734 17.038 5.89553Z" fill="#000014"/>
<path d="M12.0626 7.32422C11.1371 7.32422 10.2324 7.59865 9.4629 8.11282C8.6934 8.62698 8.09365 9.35779 7.73949 10.2128C7.38533 11.0678 7.29266 12.0087 7.47321 12.9163C7.65376 13.824 8.09941 14.6578 8.75382 15.3122C9.40823 15.9666 10.242 16.4123 11.1497 16.5928C12.0574 16.7734 12.9982 16.6807 13.8532 16.3266C14.7083 15.9724 15.4391 15.3726 15.9532 14.6031C16.4674 13.8336 16.7418 12.9289 16.7418 12.0035C16.7418 10.7625 16.2488 9.57227 15.3713 8.69474C14.4938 7.81721 13.3036 7.32422 12.0626 7.32422ZM12.0626 14.9988C11.4682 15.0001 10.8868 14.825 10.392 14.4957C9.89728 14.1663 9.51142 13.6975 9.28334 13.1487C9.05525 12.5998 8.99522 11.9956 9.11084 11.4126C9.22646 10.8296 9.51252 10.294 9.9328 9.87372C10.3531 9.45344 10.8886 9.16738 11.4717 9.05176C12.0547 8.93614 12.6589 8.99617 13.2077 9.22425C13.7566 9.45234 14.2254 9.83821 14.5547 10.333C14.8841 10.8277 15.0592 11.4091 15.0578 12.0035C15.056 12.7973 14.7399 13.5581 14.1785 14.1194C13.6172 14.6808 12.8564 14.997 12.0626 14.9988Z" fill="#000014"/>
<path d="M15.7959 21.5H8.20418C6.69099 21.4982 5.2403 20.8962 4.17032 19.8263C3.10033 18.7563 2.49841 17.3056 2.49658 15.7924V8.2007C2.49841 6.68815 3.10056 5.23817 4.17074 4.16928C5.24092 3.10039 6.69162 2.5 8.20418 2.5H15.7959C17.3084 2.5 18.7591 3.10039 19.8293 4.16928C20.8995 5.23817 21.5016 6.68815 21.5035 8.2007V15.7924C21.5016 17.3056 20.8997 18.7563 19.8298 19.8263C18.7598 20.8962 17.3091 21.4982 15.7959 21.5ZM8.20418 4.2875C7.16506 4.28933 6.16904 4.70293 5.43427 5.43769C4.69951 6.17246 4.28591 7.16847 4.28408 8.20758V15.7993C4.28591 16.8384 4.69951 17.8344 5.43427 18.5692C6.16904 19.304 7.16506 19.7176 8.20418 19.7194H15.7959C16.835 19.7176 17.831 19.304 18.5658 18.5692C19.3006 17.8344 19.7141 16.8384 19.716 15.7993V8.20758C19.7141 7.16847 19.3006 6.17246 18.5658 5.43769C17.831 4.70293 16.835 4.28933 15.7959 4.2875H8.20418Z" fill="#000014"/>
</svg>
