<svg width="24" height="24" viewBox="0 0 24 24" fill="none" xmlns="http://www.w3.org/2000/svg">
<path d="M19.2685 10.4074C19.1293 10.4157 18.9898 10.4157 18.8507 10.4074C18.097 10.408 17.3551 10.2208 16.6919 9.86267C16.0288 9.50456 15.4653 8.98688 15.0524 8.35638V15.3344C15.0535 16.3554 14.7516 17.3539 14.185 18.2033C13.6184 19.0527 12.8125 19.7149 11.8694 20.1062C10.9263 20.4974 9.88829 20.6 8.8868 20.4011C7.8853 20.2022 6.96534 19.7106 6.24334 18.9886C5.52134 18.2666 5.02976 17.3467 4.83082 16.3452C4.63189 15.3437 4.73454 14.3057 5.12578 13.3625C5.51701 12.4194 6.17926 11.6135 7.02869 11.0469C7.87812 10.4803 8.87654 10.1785 9.8976 10.1795C10.0061 10.1795 10.1092 10.1795 10.2123 10.1795V12.719C10.1081 12.7025 10.003 12.6916 9.8976 12.6864C9.2196 12.7172 8.57957 13.0082 8.11067 13.4988C7.64177 13.9895 7.38009 14.6421 7.38009 15.3208C7.38009 15.9995 7.64177 16.6521 8.11067 17.1427C8.57957 17.6334 9.2196 17.9244 9.8976 17.9552C10.5978 17.9558 11.2712 17.6857 11.7768 17.2012C12.2825 16.7168 12.5812 16.0557 12.6107 15.3561L12.6378 3.5H15.0687C15.1804 4.55683 15.6601 5.54074 16.4239 6.27969C17.1876 7.01865 18.1868 7.46563 19.2468 7.54246V10.3695" fill="#000014"/>
</svg>
