<svg width="24" height="24" viewBox="0 0 24 24" fill="none" xmlns="http://www.w3.org/2000/svg">
<path d="M23.4308 9.01269C23.4308 7.68324 22.9026 6.40825 21.9626 5.46819C21.0225 4.52813 19.7475 4 18.4181 4H5.58955C4.25941 4 2.98364 4.52789 2.04239 5.46773C1.10114 6.40758 0.571327 7.68255 0.569336 9.01269V14.9873C0.571327 16.3175 1.10114 17.5924 2.04239 18.5323C2.98364 19.4721 4.25941 20 5.58955 20H18.4181C19.7475 20 21.0225 19.4719 21.9626 18.5318C22.9026 17.5917 23.4308 16.3168 23.4308 14.9873V9.01269ZM15.9155 12.4472L10.1663 15.2954C9.94088 15.4157 9.17432 15.2503 9.17432 14.9948V9.15548C9.17432 8.89245 9.92584 8.73462 10.1738 8.86238L15.675 11.8685C15.8779 11.9887 16.1184 12.3194 15.8854 12.4321L15.9155 12.4472Z" fill="#000014"/>
</svg>
