<svg width="269" height="66" viewBox="0 0 269 66" fill="none" xmlns="http://www.w3.org/2000/svg">
<path d="M25.324 0.599258C18.7379 2.0914 11.3169 6.89425 6.95713 12.5364C1.99438 18.9247 0 24.6601 0 32.7737C0 39.0686 0.834856 42.426 3.75685 48.3945C5.56571 52.0783 6.58609 53.4772 9.87913 56.7879C16.0014 62.8963 21.7526 65.6009 29.4055 65.8806C33.7653 66.0671 33.7653 66.0671 30.4722 65.6475C21.1033 64.575 13.5896 60.4716 8.30218 53.5238C6.12228 50.6328 2.69009 44.3378 3.10752 43.9181C3.24666 43.7782 3.98876 44.0114 4.77723 44.3844C5.51933 44.8041 7.23542 45.3636 8.4877 45.6434C10.2502 46.0164 11.1314 46.5294 12.0126 47.6018L13.1722 49.094L12.1982 46.7159L11.1778 44.3378L13.0794 40.4209C14.0998 38.2759 15.3521 35.9911 15.8623 35.3849C16.7435 34.2658 16.7899 34.2658 18.5987 35.0119C20.2684 35.6647 23.2832 36.504 27.1792 37.39C28.1532 37.6231 28.4315 37.9962 28.7098 39.4883C28.8489 40.5142 29.2663 41.6799 29.6374 42.1462C30.1476 42.8923 30.194 42.6591 29.7765 40.5608C29.5446 39.1619 29.4055 37.6698 29.4982 37.2035C29.591 36.7372 31.539 34.6855 33.8117 32.5871C38.357 28.4837 38.6817 28.3438 42.8559 29.5096C44.2474 29.8826 45.9171 30.3023 46.5664 30.4422C48.9318 31.0017 45.0358 29.1365 42.1602 28.3438L39.3774 27.5511L37.9396 21.7691C36.5945 16.4999 36.5481 15.8937 37.1975 15.1477C39.2846 12.7696 45.3141 10.6712 47.2157 11.6505C48.5144 12.3033 51.8074 15.0078 53.6163 16.873L55.0541 18.3185L54.0801 16.9196C52.967 15.2409 50.1841 12.5831 48.097 11.1375C47.1694 10.5314 46.5664 9.69202 46.5664 9.08583C46.52 8.52628 46.2417 7.22065 45.8707 6.19481C45.4996 5.21558 45.3141 4.28299 45.4069 4.18974C45.7316 3.8167 48.3753 5.0757 51.1117 6.89425C59.4139 12.3033 64.3303 20.8831 65.5826 32.0742L66 36.0377L65.8609 30.9085C65.7217 26.8517 65.4434 25.0331 64.5158 22.3753C60.9909 12.3499 53.6163 5.30884 42.624 1.43859C38.4961 -0.0535583 29.8693 -0.473221 25.324 0.599258ZM40.6297 3.25714L44.1082 4.93581L44.572 7.40717C45.1286 10.2049 45.0358 10.3915 42.4385 10.8111C41.5109 10.951 39.5165 11.7903 38.0323 12.7229L35.2959 14.355L32.4666 13.2359C30.8897 12.6297 28.3387 11.837 26.7154 11.5106C23.6543 10.8578 23.1904 10.4847 22.402 7.73358C21.8918 5.91503 22.2164 5.26221 24.1644 4.04985C29.4982 0.69252 34.7857 0.459373 40.6297 3.25714ZM21.0105 9.03921C21.3352 10.4381 21.5207 11.6505 21.428 11.7437C17.9958 13.842 16.8826 14.9612 13.9606 19.1112C13.4968 19.764 12.8939 19.8573 10.2038 19.6241L7.04989 19.3443L7.2818 17.8056C8.16304 12.4898 14.3781 6.42795 18.9698 6.42795C20.3612 6.42795 20.454 6.56784 21.0105 9.03921ZM12.2909 21.8623C12.8011 22.1421 13.2649 23.3545 13.636 25.4062C13.9143 27.1781 14.5636 29.5096 15.0738 30.6287L15.955 32.6338L14.9346 34.0793C14.3781 34.872 13.1258 37.39 12.1982 39.7215L10.4357 43.9647L8.62684 43.9181C5.3338 43.8715 4.1279 43.0322 2.73647 39.908C0.185524 34.1725 0.881237 28.6702 4.82361 23.4011L6.72523 20.8365L9.13703 21.1629C10.4821 21.3494 11.8735 21.6292 12.2909 21.8623Z" fill="white"/>
<path d="M88.68 15.908H97.08V9.74H103.92V27.5H97.08V21.164H88.68V27.5H81.84V9.74H88.68V15.908ZM130.974 27.5H124.134L122.67 24.812H113.19L111.726 27.5H104.886L114.51 9.74H121.35L130.974 27.5ZM117.942 16.052L115.542 20.444H120.318L117.942 16.052ZM138.776 27.5H131.936V9.74L138.776 27.5ZM155.456 27.5H148.616H155.456ZM148.616 19.748V9.74H155.456V27.5H148.616L138.776 17.492V27.5H131.936V9.74H138.776L148.616 19.748ZM178.828 18.644C178.828 20.324 178.372 21.836 177.46 23.18C176.548 24.524 175.244 25.58 173.548 26.348C171.868 27.116 169.916 27.5 167.692 27.5V27.524H163.228V27.5H157.852V9.74H167.668C169.908 9.74 171.868 10.124 173.548 10.892C175.244 11.644 176.548 12.7 177.46 14.06C178.372 15.404 178.828 16.932 178.828 18.644ZM167.692 22.148C168.94 22.148 169.98 21.868 170.812 21.308C171.66 20.732 172.084 19.844 172.084 18.644C172.084 17.972 171.876 17.364 171.46 16.82C171.044 16.276 170.5 15.86 169.828 15.572C169.156 15.268 168.444 15.116 167.692 15.116H164.692V22.148H167.692ZM200.159 18.188C201.503 18.46 202.519 18.932 203.207 19.604C203.895 20.26 204.239 21.204 204.239 22.436V22.532C204.239 24.228 203.463 25.484 201.911 26.3C200.375 27.1 198.255 27.5 195.551 27.5H195.503H194.735H180.743V9.74H196.655C198.511 9.756 199.991 10.14 201.095 10.892C202.199 11.644 202.751 12.708 202.751 14.084V14.18C202.751 15.22 202.535 16.068 202.103 16.724C201.671 17.38 201.023 17.868 200.159 18.188ZM193.199 16.604C193.919 16.604 194.455 16.588 194.807 16.556C195.159 16.508 195.455 16.388 195.695 16.196C195.951 15.988 196.079 15.644 196.079 15.164C196.079 14.732 195.959 14.42 195.719 14.228C195.495 14.036 195.191 13.916 194.807 13.868C194.439 13.82 193.903 13.796 193.199 13.796H193.175H187.103V16.58L191.999 16.604H193.199ZM193.991 23.012C194.823 23.012 195.447 22.988 195.863 22.94C196.295 22.892 196.631 22.764 196.871 22.556C197.127 22.332 197.255 21.98 197.255 21.5C197.255 21.036 197.127 20.708 196.871 20.516C196.631 20.308 196.295 20.18 195.863 20.132C195.447 20.084 194.823 20.06 193.991 20.06H193.967H187.103V22.988C189.199 22.988 190.663 22.996 191.495 23.012C192.343 23.012 192.919 23.012 193.223 23.012H193.991ZM229.854 27.5H223.014L221.55 24.812H212.07L210.606 27.5H203.766L213.39 9.74H220.23L229.854 27.5ZM216.822 16.052L214.422 20.444H219.198L216.822 16.052ZM237.656 9.74V22.34H248.336V27.5H230.816V9.74H237.656ZM257.22 9.74V22.34H267.9V27.5H250.38V9.74H257.22Z" fill="white"/>
<path d="M85.9006 56.5H82.1867V40.2379H85.9006V56.5ZM88.5018 40.216L106.346 40.2379V43.4244L93.4024 53.3355L106.148 53.3575V56.522L88.2601 56.5V53.3135H88.37L101.27 43.4024L88.5018 43.3805V40.216ZM130.148 40.2379V56.5H126.434V46.3252L121.468 56.5H117.754L112.435 46.1714V56.5H108.722V40.2379H113.205L119.578 52.7641L125.687 40.2379H130.148ZM153.596 56.5H149.729L147.861 53.0498H137.598L135.73 56.5H131.862L140.675 40.2379H144.784L153.596 56.5ZM142.74 43.5783L139.224 50.0391H146.234L142.74 43.5783ZM159.015 56.5H155.301V40.2379H159.015V56.5ZM165.747 40.2379V53.4454H176.911V56.5H162.033V40.2379H165.747ZM187.249 48.3909C187.249 46.7647 187.696 45.2997 188.589 43.9958C189.498 42.6919 190.728 41.6737 192.281 40.9412C193.849 40.194 195.585 39.8204 197.49 39.8204C199.878 39.8204 201.936 40.3991 203.665 41.5565C205.408 42.6992 206.61 44.3034 207.269 46.3692L203.401 46.3911C203.123 45.644 202.647 45.0067 201.973 44.4793C201.313 43.9372 200.581 43.5343 199.775 43.2706C198.969 42.9922 198.215 42.853 197.512 42.853C196.457 42.853 195.431 43.0728 194.435 43.5123C193.439 43.9372 192.618 44.5745 191.974 45.4242C191.344 46.2593 191.029 47.2482 191.029 48.3909C191.029 49.5483 191.329 50.5446 191.93 51.3796C192.53 52.2001 193.322 52.83 194.303 53.2696C195.299 53.6944 196.369 53.9069 197.512 53.9069C198.64 53.9069 199.746 53.6065 200.83 53.0059C201.929 52.4052 202.756 51.5481 203.313 50.4347H207.269C206.566 52.5151 205.35 54.1193 203.621 55.2474C201.907 56.3755 199.863 56.9395 197.49 56.9395C195.6 56.9395 193.871 56.5659 192.303 55.8188C190.736 55.0716 189.498 54.046 188.589 52.7421C187.696 51.4382 187.249 49.9878 187.249 48.3909ZM213.565 40.2379V53.4454H224.729V56.5H209.851V40.2379H213.565ZM241.193 40.2379H244.994V48.8085C244.994 50.4054 244.584 51.8192 243.764 53.0498C242.958 54.2804 241.844 55.2401 240.423 55.9286C239.002 56.6172 237.413 56.9615 235.655 56.9615C233.897 56.9615 232.263 56.6172 230.754 55.9286C229.26 55.2401 228.066 54.2804 227.172 53.0498C226.278 51.8045 225.824 50.3981 225.809 48.8305V40.2379H229.633V48.9843C229.633 50.171 229.97 51.1233 230.644 51.8411C231.318 52.559 232.117 53.0718 233.04 53.3794C233.962 53.6725 234.842 53.819 235.677 53.819C236.438 53.819 237.244 53.6725 238.094 53.3794C238.944 53.0718 239.669 52.559 240.27 51.8411C240.885 51.1233 241.193 50.171 241.193 48.9843V40.2379ZM263.69 47.9734C264.92 48.2225 265.851 48.6547 266.481 49.27C267.111 49.8706 267.426 50.735 267.426 51.8631V51.951C267.426 53.2256 267.103 54.1925 266.459 54.8518C265.829 55.5111 264.957 55.9506 263.844 56.1704C262.745 56.3755 261.287 56.4927 259.47 56.522H259.426H258.394L247.889 56.5V40.2379H260.481C262.181 40.2526 263.536 40.6042 264.547 41.2928C265.558 41.9813 266.063 42.9556 266.063 44.2155V44.3035C266.063 45.2557 265.865 46.0322 265.47 46.6329C265.074 47.2336 264.481 47.6804 263.69 47.9734ZM262.415 44.8089C262.415 44.1936 262.283 43.7541 262.02 43.4903C261.756 43.212 261.412 43.0435 260.987 42.9849C260.562 42.9117 259.946 42.875 259.141 42.875H259.097H251.471V46.7428L257.163 46.8087H256.943H259.141C259.961 46.8087 260.569 46.7867 260.965 46.7428C261.375 46.6842 261.719 46.5157 261.998 46.2373C262.276 45.9443 262.415 45.4682 262.415 44.8089ZM259.844 53.7091C260.796 53.7091 261.507 53.6725 261.976 53.5992C262.459 53.5259 262.84 53.3355 263.118 53.0278C263.397 52.7055 263.536 52.1854 263.536 51.4675C263.536 50.779 263.397 50.2809 263.118 49.9732C262.84 49.6655 262.459 49.4824 261.976 49.4238C261.507 49.3506 260.796 49.3139 259.844 49.3139H259.822H251.471V53.6651C254.899 53.6651 257.361 53.6798 258.855 53.7091H259.844Z" fill="url(#paint0_linear_75_160)"/>
<defs>
<linearGradient id="paint0_linear_75_160" x1="210.826" y1="68.4604" x2="186.616" y2="-5.87258" gradientUnits="userSpaceOnUse">
<stop stop-color="#DF1D00"/>
<stop offset="1" stop-color="#FFC148"/>
</linearGradient>
</defs>
</svg>
