<svg width="66" height="66" viewBox="0 0 66 66" fill="none" xmlns="http://www.w3.org/2000/svg">
<path d="M25.324 0.599258C18.7379 2.0914 11.3169 6.89425 6.95713 12.5364C1.99438 18.9247 0 24.6601 0 32.7737C0 39.0686 0.834856 42.426 3.75685 48.3945C5.56571 52.0783 6.58609 53.4772 9.87913 56.7879C16.0014 62.8963 21.7526 65.6009 29.4055 65.8806C33.7653 66.0671 33.7653 66.0671 30.4722 65.6475C21.1033 64.575 13.5896 60.4716 8.30218 53.5238C6.12228 50.6328 2.69009 44.3378 3.10752 43.9181C3.24666 43.7782 3.98876 44.0114 4.77723 44.3844C5.51933 44.8041 7.23542 45.3636 8.4877 45.6434C10.2502 46.0164 11.1314 46.5294 12.0126 47.6018L13.1722 49.094L12.1982 46.7159L11.1778 44.3378L13.0794 40.4209C14.0998 38.2759 15.3521 35.9911 15.8623 35.3849C16.7435 34.2658 16.7899 34.2658 18.5987 35.0119C20.2684 35.6647 23.2832 36.504 27.1792 37.39C28.1532 37.6231 28.4315 37.9962 28.7098 39.4883C28.8489 40.5142 29.2663 41.6799 29.6374 42.1462C30.1476 42.8923 30.194 42.6591 29.7765 40.5608C29.5446 39.1619 29.4055 37.6698 29.4982 37.2035C29.591 36.7372 31.539 34.6855 33.8117 32.5871C38.357 28.4837 38.6817 28.3438 42.8559 29.5096C44.2474 29.8826 45.9171 30.3023 46.5664 30.4422C48.9318 31.0017 45.0358 29.1365 42.1602 28.3438L39.3774 27.5511L37.9396 21.7691C36.5945 16.4999 36.5481 15.8937 37.1975 15.1477C39.2846 12.7696 45.3141 10.6712 47.2157 11.6505C48.5144 12.3033 51.8074 15.0078 53.6163 16.873L55.0541 18.3185L54.0801 16.9196C52.967 15.2409 50.1841 12.5831 48.097 11.1375C47.1694 10.5314 46.5664 9.69202 46.5664 9.08583C46.52 8.52628 46.2417 7.22065 45.8707 6.19481C45.4996 5.21558 45.3141 4.28299 45.4069 4.18974C45.7316 3.8167 48.3753 5.0757 51.1117 6.89425C59.4139 12.3033 64.3303 20.8831 65.5826 32.0742L66 36.0377L65.8609 30.9085C65.7217 26.8517 65.4434 25.0331 64.5158 22.3753C60.9909 12.3499 53.6163 5.30884 42.624 1.43859C38.4961 -0.0535583 29.8693 -0.473221 25.324 0.599258ZM40.6297 3.25714L44.1082 4.93581L44.572 7.40717C45.1286 10.2049 45.0358 10.3915 42.4385 10.8111C41.5109 10.951 39.5165 11.7903 38.0323 12.7229L35.2959 14.355L32.4666 13.2359C30.8897 12.6297 28.3387 11.837 26.7154 11.5106C23.6543 10.8578 23.1904 10.4847 22.402 7.73358C21.8918 5.91503 22.2164 5.26221 24.1644 4.04985C29.4982 0.69252 34.7857 0.459373 40.6297 3.25714ZM21.0105 9.03921C21.3352 10.4381 21.5207 11.6505 21.428 11.7437C17.9958 13.842 16.8826 14.9612 13.9606 19.1112C13.4968 19.764 12.8939 19.8573 10.2038 19.6241L7.04989 19.3443L7.2818 17.8056C8.16304 12.4898 14.3781 6.42795 18.9698 6.42795C20.3612 6.42795 20.454 6.56784 21.0105 9.03921ZM12.2909 21.8623C12.8011 22.1421 13.2649 23.3545 13.636 25.4062C13.9143 27.1781 14.5636 29.5096 15.0738 30.6287L15.955 32.6338L14.9346 34.0793C14.3781 34.872 13.1258 37.39 12.1982 39.7215L10.4357 43.9647L8.62684 43.9181C5.3338 43.8715 4.1279 43.0322 2.73647 39.908C0.185524 34.1725 0.881237 28.6702 4.82361 23.4011L6.72523 20.8365L9.13703 21.1629C10.4821 21.3494 11.8735 21.6292 12.2909 21.8623Z" fill="white"/>
</svg>
